<?xml version="1.0" encoding="utf-8"?>
<!-- Generator: Adobe Illustrator 24.0.3, SVG Export Plug-In . SVG Version: 6.00 Build 0)  -->
<svg version="1.1" id="Lager_1" xmlns="http://www.w3.org/2000/svg" xmlns:xlink="http://www.w3.org/1999/xlink" x="0px" y="0px"
	 viewBox="0 0 472.5 66.3" style="enable-background:new 0 0 472.5 66.3;" xml:space="preserve">
<style type="text/css">
	.st0{fill:#5D5958;}
	.st1{fill:#F3994E;}
	.st2{fill:#FFFFFF;}
</style>
<g>
	<path class="st0" d="M98.6,29.3c11.1,0.8,13.9,2.2,13.9,10.8c0,6.2,0.3,12.3-16.3,12.3c-9.2,0-15.5-0.2-15.9-11.2
		c0-0.7,0.5-1.3,1.2-1.3h7.2c0.6,0,1.2,0.5,1.2,1.1c0.3,2.9,1.8,3.2,6.3,3.2c4.7,0,6.3-0.3,6.3-3.5c0-3.3-0.6-3.2-5.3-3.5L95,37.1
		c-9.3-0.6-14.7-0.6-14.7-11.4s6.1-11.5,15.9-11.5c8.2,0,15.2,0.1,15.2,10.5v0.4c0,0.7-0.5,1.2-1.2,1.2H103c-0.6,0-1.1-0.4-1.2-1
		c-0.3-2.8-2-2.8-5.6-2.8c-5.4,0-5.9,1.1-5.9,3.2c0,3,1.5,3.1,4.1,3.3L98.6,29.3z"/>
	<path class="st0" d="M161.2,14.6h7.6c0.8,0,1.3,0.7,1.2,1.5l-7.8,35.1c-0.1,0.5-0.6,0.9-1.2,0.9h-12.5c-0.6,0-1.1-0.4-1.2-0.9
		l-4.9-22.6H142l-5.2,22.6c-0.1,0.5-0.6,0.9-1.2,0.9h-12.4c-0.6,0-1.1-0.4-1.2-0.9l-7.6-35.1c-0.2-0.7,0.4-1.5,1.2-1.5h7.7
		c0.6,0,1.1,0.4,1.2,1l5.2,27.9h0.4l6.8-28c0.1-0.5,0.6-0.9,1.2-0.9h8.5c0.6,0,1,0.4,1.2,0.9l6.5,28h0.4l5.5-27.9
		C160.1,15,160.6,14.6,161.2,14.6z"/>
	<path class="st0" d="M184.4,29.7H198c0.7,0,1.2,0.5,1.2,1.2v4.6c0,0.7-0.5,1.2-1.2,1.2h-13.6c-0.7,0-1.2,0.5-1.2,1.2v4.9
		c0,0.7,0.5,1.2,1.2,1.2h15c0.7,0,1.2,0.5,1.2,1.2V51c0,0.7-0.5,1.2-1.2,1.2h-25c-0.7,0-1.2-0.5-1.2-1.2V15.8c0-0.7,0.5-1.2,1.2-1.2
		h24.7c0.7,0,1.2,0.5,1.2,1.2v5.8c0,0.7-0.5,1.2-1.2,1.2h-14.7c-0.7,0-1.2,0.5-1.2,1.2v4.5C183.2,29.1,183.8,29.7,184.4,29.7z"/>
	<path class="st1" d="M230.7,27.2c-0.7,0-1.2-0.5-1.2-1.2v-0.9c0-4.4-1.7-4.7-8-4.7c-7.3,0-8.5,1.2-8.5,8.6v8.3c0.1,7.5,1,9,8.5,9
		c5.8,0,8.4-0.2,8.4-5.6v-0.9c0-0.7,0.5-1.2,1.2-1.2h4.8c0.7,0,1.2,0.5,1.2,1.2v1.3c0.2,11.3-6.3,10.9-15.6,11.3
		c-13.2,0.5-15.6-3.9-15.7-14.8V29c0-12,4.7-14.7,15.7-14.7c9.4,0,14.7,0,15.2,10.8V26c0,0.7-0.5,1.2-1.2,1.2H230.7z"/>
	<path class="st1" d="M250.5,46h15.1c0.7,0,1.2,0.5,1.2,1.2V51c0,0.7-0.5,1.2-1.2,1.2h-22.3c-0.7,0-1.2-0.5-1.2-1.2V15.8
		c0-0.7,0.5-1.2,1.2-1.2h4.8c0.7,0,1.2,0.5,1.2,1.2v29C249.3,45.5,249.8,46,250.5,46z"/>
	<path class="st1" d="M300.8,28v10.1c0,12-4.7,14.3-16,14.3c-11.6,0-15.9-2-15.9-14.3V28c0-11.7,4-13.7,15.9-13.7
		C295.6,14.3,300.8,16,300.8,28z M276.2,28v10.1c0,7.5,1.5,8.2,8.7,8.2c6.6,0,8.8-0.9,8.8-8.2V28c0.2-7.1-2.4-7.6-8.8-7.6
		C277.1,20.5,276.3,22.1,276.2,28z"/>
	<path class="st1" d="M329.6,27.2c-0.7,0-1.2-0.5-1.2-1.2v-0.9c0-4.4-1.7-4.7-8-4.7c-7.3,0-8.5,1.2-8.5,8.6v8.3c0.1,7.5,1,9,8.5,9
		c5.8,0,8.4-0.2,8.4-5.6v-0.9c0-0.7,0.5-1.2,1.2-1.2h4.8c0.7,0,1.2,0.5,1.2,1.2v1.3c0.2,11.3-6.3,10.9-15.6,11.3
		c-13.2,0.5-15.6-3.9-15.7-14.8V29c0-12,4.7-14.7,15.7-14.7c9.4,0,14.7,0,15.2,10.8V26c0,0.7-0.5,1.2-1.2,1.2H329.6z"/>
	<path class="st1" d="M349.3,29.9h1.6c0.4,0,0.7-0.2,0.9-0.4l11.8-14.4c0.2-0.3,0.6-0.4,0.9-0.4h5.7c1,0,1.6,1.2,0.9,2l-12.9,15.6
		c-0.4,0.5-0.4,1.1,0,1.6l14.4,16.5c0.7,0.8,0.1,2-0.9,2h-5.9c-0.3,0-0.7-0.2-0.9-0.4l-13.1-15.2c-0.2-0.3-0.6-0.4-0.9-0.4h-1.6
		c-0.7,0-1.2,0.5-1.2,1.2v13.7c0,0.7-0.5,1.2-1.2,1.2h-4.8c-0.7,0-1.2-0.5-1.2-1.2V15.8c0-0.7,0.5-1.2,1.2-1.2h4.8
		c0.7,0,1.2,0.5,1.2,1.2v12.9C348.1,29.4,348.7,29.9,349.3,29.9z"/>
	<path class="st1" d="M384.6,30.1h15.2c0.7,0,1.2,0.5,1.2,1.2v3.5c0,0.7-0.5,1.2-1.2,1.2h-15.2c-0.7,0-1.2,0.5-1.2,1.2v7.6
		c0,0.7,0.5,1.2,1.2,1.2h16.3c0.7,0,1.2,0.5,1.2,1.2V51c0,0.7-0.5,1.2-1.2,1.2h-23.5c-0.7,0-1.2-0.5-1.2-1.2V15.8
		c0-0.7,0.5-1.2,1.2-1.2h23.3c0.7,0,1.2,0.5,1.2,1.2v3.8c0,0.7-0.5,1.2-1.2,1.2h-16.1c-0.7,0-1.2,0.5-1.2,1.2v7
		C383.4,29.6,383.9,30.1,384.6,30.1z"/>
	<path class="st1" d="M414.6,40.9v10c0,0.7-0.5,1.2-1.2,1.2h-4.8c-0.7,0-1.2-0.5-1.2-1.2V15.8c0-0.7,0.5-1.2,1.2-1.2h18
		c8.2,0.2,11.4,2.8,11.4,11.3c0,5.6-0.3,9.6-6.7,10.6v0.2c5.1,0.5,6.4,3.2,6.4,8.5V51c0,0.7-0.5,1.2-1.2,1.2h-4.8
		c-0.7,0-1.2-0.5-1.2-1.2v-5.8c0-3.2-1.3-5.4-4.8-5.4h-9.9C415.1,39.7,414.6,40.3,414.6,40.9z M424.1,33.6c5.3,0,6.6-1.1,6.6-6.6
		c0-5.3-1-6.3-6.1-6.3h-8.8c-0.7,0-1.2,0.5-1.2,1.2v10.4c0,0.7,0.5,1.2,1.2,1.2h8.3V33.6z"/>
	<path class="st1" d="M448.1,40.2c0.7,0,1.2,0.5,1.2,1.2V42c0,4.3,1.9,4.6,8.5,4.6s7.5-1.2,7.5-5.6c0-5.4-2.9-4.7-8.5-5
		c-8.1-0.5-14.5-0.2-14.5-11.1c0-10.3,6.5-10.6,15.5-10.6c7.7,0,13.9,0.2,13.9,10.1l0,0c0,0.7-0.5,1.2-1.2,1.2h-4.8
		c-0.7,0-1.2-0.5-1.2-1.2l0,0c0-4.1-1.7-4.2-6.7-4.2c-7.2,0-8.3,0.7-8.3,4.7c0,4.6,1,4.8,8.3,5.2c11.6,0.7,14.7,1.3,14.7,10.9
		c0,10.6-5,11.5-14.7,11.5c-8.3,0-15.7,0.2-15.7-10.5v-0.6c0-0.7,0.5-1.2,1.2-1.2H448.1z"/>
</g>
<g>
	<circle id="Bakgrundsfärg" class="st2" cx="33.2" cy="33.2" r="33.2"/>
	<g>
		<path class="st0" d="M43.6,43.8c0-0.1,0-0.2-0.1-0.3c0-0.1-0.1-0.1-0.2-0.2c-0.1-0.1-0.2-0.2-0.2-0.3c-0.1-0.3,0.3-0.6,0.8-1
			c0,0,0,0,0,0c0.1-0.1,0.2-0.2,0.3-0.2c0,0,0.1,0,0.1-0.1c0.3-0.2,0.4-0.5,0.4-0.8c0-0.1-0.1-0.3-0.3-0.2c-0.1,0-0.1,0.1-0.2,0.1
			c-0.2,0.1-0.4,0.2-0.6,0.3c-0.4,0.2-0.9,0.4-1.3,0.6h0c-0.2,0.1-0.3,0.1-0.5,0.2c-1.1,0.4-2.2,0.7-3.3,0.9c-0.7,0.1-1.3,0.2-2,0.2
			l0,0c-0.5,0-0.9,0-1.4,0c-1.2,0-2.3-0.1-3.4-0.4c-0.2,0-0.3,0.1-0.2,0.2c0.6,0.7,1.1,1.2,1.9,1.7c0.9,0.6,1.9,1,3,1.2
			c0.4,0.1,0.9,0.1,1.4,0.1c1.4,0,2.7-0.3,3.9-0.9c0.5-0.3,1-0.6,1.4-0.9C43.4,44.1,43.6,44,43.6,43.8z"/>
		<path class="st0" d="M32,28.3c-1.2-0.5-2.6-0.2-3.6,0.5c-0.1,0.1-0.1,0.1,0,0.2c0,0,0.1,0.1,0.2,0.1l0.1,0c1.2-0.4,2.2-0.2,3,0.3
			c0.5,0.3,0.9,0.7,1.1,1.1c-0.3-0.3-0.7-0.6-1.1-0.7c-0.3,0-0.5,0-0.7,0c-0.1,0-0.2,0.2-0.1,0.3c0.2,0.2,0.3,0.4,0.3,0.7
			c0,0.4-0.3,0.7-0.7,0.7c-0.2,0-0.4,0-0.5-0.1c-0.1-0.1-0.3,0-0.3,0.1c0,0.2,0,0.3,0.1,0.5c0.2,0.7,0.9,1.2,1.6,1.2
			c0.9,0,1.6-0.6,1.8-1.4c0,0.6-0.2,1.2-0.6,1.7c-0.5,0.7-1.5,1.3-2.7,1.4l0,0c-0.1,0-0.1,0.1-0.1,0.1c0,0,0,0.1,0.1,0.1
			c0.6,0.2,1.2,0.2,1.8,0c0.6-0.1,1.2-0.4,1.6-0.9c0.2-0.2,0.4-0.4,0.6-0.7c0.2-0.3,0.3-0.5,0.4-0.8c0.2-0.6,0.2-1.2,0.1-1.8
			C34.1,29.9,33.1,28.8,32,28.3z"/>
		<path class="st0" d="M33.8,23.9C33.8,23.8,33.8,23.8,33.8,23.9c-1.5-1.1-3.3-1.5-5-1.1c-1.7,0.4-3.1,1.5-4.1,3.1
			c-0.1,0.2-0.4,0.7-0.4,0.7c-0.1,0.1-0.1,0.2-0.1,0.4c0,0.3,0.3,0.4,0.5,0.4c0.1,0,0.1-0.1,0.2-0.1l0,0c1.2-1.3,2.6-2.2,4.3-2.7
			c1.5-0.4,2.9-0.3,4.3,0.2l0,0c0.1,0,0.1,0,0.2,0c0.2-0.1,0.3-0.3,0.3-0.6C34,24,33.9,23.9,33.8,23.9z"/>
		<path class="st0" d="M41.4,46.7c-1,0.4-2,0.6-3.1,0.6c-0.2,0-0.4,0-0.6,0c-0.1,0-0.2,0.2-0.1,0.3c0.5,0.4,1.1,0.7,1.7,0.7
			c1,0,1.9-0.5,2.3-1.3C41.7,46.8,41.5,46.7,41.4,46.7z"/>
		<path class="st0" d="M31.8,1.1C15.2,1.8,1.7,15.4,1.1,32C0.6,47.8,11.5,61.2,26.2,64.4c0,0,0.1,0,0-0.1l-0.7-5.6l0,0l-1-7.7
			c0-0.3,0.1-0.4,0.3-0.2c0.6,0.7,1.3,1.4,2.1,1.9c0.9,0.6,1.8,1.1,2.8,1.4c0.4,0.1,0.7,0.4,0.8,0.7c0.4,0.9,1.1,1.7,2,2.2
			c0.3,0.1,0.4,0.4,0.3,0.7l-2,6.9c-0.1,0.2,0.1,0.4,0.3,0.4c0.7,0,1.3,0.1,2,0.1c1.3,0,2.5-0.1,3.7-0.2c0.2,0,0.3-0.2,0.3-0.4
			l-1.6-6.4c-0.1-0.3,0.1-0.6,0.4-0.7c0.4-0.1,0.7-0.2,1-0.4c0.8-0.4,1.4-1,1.8-1.8c0.1-0.1,0-0.3-0.2-0.3c-0.7,0.1-1.5,0.2-2.2,0.2
			c0,0-0.1,0-0.1,0c-0.5,0-1-0.1-1.5-0.1c-0.3-0.1-0.7-0.1-1-0.2c-0.2,0-0.1-0.1,0-0.2c0.3,0,0.6,0,0.8-0.1c0.4-0.1,0.8-0.1,1.2-0.2
			c0.2,0,0.3-0.1,0.5-0.1h0c0.7-0.2,1.4-0.5,2.1-0.9c0.3-0.2,0.6-0.4,0.9-0.6c0.1,0,0.1-0.1,0.2-0.1c0.1-0.1,0-0.2-0.1-0.2
			c0,0-0.1,0-0.1,0c-0.4,0.1-0.8,0.1-1.2,0.2c-0.4,0-0.7,0-1.1,0c-0.8,0-1.6-0.1-2.3-0.3c-1.2-0.3-2.3-0.8-3.2-1.4
			c-0.2-0.1-0.3-0.2-0.5-0.4c-0.7-0.5-1.2-1.1-1.8-1.7c-0.3-0.4-0.6-0.8-0.9-1.2c-0.3-0.5-0.6-1-0.8-1.6c-0.1-0.3-0.3-0.7-0.4-1.1
			c-0.2-0.6-0.3-1.1-0.3-1.7c0-0.4-0.1-0.8-0.1-1.2c0,0,0-0.1,0-0.1c0-0.2,0-0.7,0.1-0.9c0-0.3-0.1-0.5-0.3-0.7
			c-0.1-0.1-0.3-0.2-0.3-0.2c-0.2-0.1-0.4-0.3-0.6-0.5c0,0-0.1-0.1-0.1-0.1c0,0-0.1-0.1-0.1-0.1c0,0,0,0-0.1,0
			c-0.2-0.1-0.3-0.2-0.4-0.4c-0.3-0.4-0.7-0.8-0.9-1.2c-0.1-0.2-0.2-0.3-0.3-0.5c-0.4-0.6-0.7-1.3-1-2.1c-0.2-0.6-0.3-1.2-0.4-1.8
			c-0.1-0.4-0.3-1.2,0.3-1.1c0,0,0,0,0,0C23.8,32.7,25,33,25,33c0,0,0,0,0,0s0,0,0,0c0.5,2.7,2.9,4.7,5.7,4.6c2.5-0.1,4.7-2,5.3-4.4
			c0,1-0.1,2-0.3,3l0,0c0,0-0.3,1.4,0.3,1.9c0.7,0.5,1.6,0.8,2.6,0.8c1.8,0,3.4-1,4.2-2.4c0.1-0.2-0.1-0.5-0.3-0.4
			c-1,0.4-2.2,1.2-2.7,0.1c-0.5-1.1-1.2-3.9-1.5-5.3c-0.1-0.6-0.7-1-1.3-1c-0.1,0-0.2,0-0.3,0l0,0c0,0-0.4,0-0.1-0.2
			c0.6-0.2,1.2-0.4,1.9-0.4l0,0c0.5,0,0.8,0.3,1,0.8c0.7,2.4,2.8,4.1,5.4,4.1c1,0,1.9-0.2,2.7-0.7c0,0,0,0,0,0c0,0,0,0,0,0
			c0,0,0,0,0,0c0.2-0.1,0.7-0.3,0.9,0c0.3,0.4,0.8,1.3,0.9,3.3c0,0.4,0,0.9,0,1.4c0,0.6-0.1,1.3-0.3,2c-0.1,0.2,0.1,0.5,0.3,0.6
			c1.1,0.6,2.1,1.3,3,2.1c0.5,0.5,1.1,0.9,1.5,1.5c0.1,0.2-0.1,0.4-0.2,0.3c-1.2-1-2.7-2.1-4.6-2.7c-0.3-0.1-0.5,0.1-0.6,0.3
			c-0.3,0.9-0.8,2-1.2,2.8c0,0,0,0,0,0c-0.1,0.3-0.3,0.6-0.4,0.8l-0.1,0.1c-0.1,0.1-0.3,0.5-0.4,0.7c0,0,0,0,0,0c0,0,0,0,0,0
			c-0.3,0.5-0.6,1-0.9,1.5c0,0,0,0,0,0c0,0,0,0,0,0c-0.5,0.7-1.1,1.3-1.7,1.8c-0.1,0.1-0.2,0.3-0.2,0.4l-0.1,0.5l-0.2,1.3l0,0.2
			l-1.4,11c0,0.1,0.1,0.1,0.1,0.1C55.5,60,65.2,47.7,65.2,33.2C65.2,15,50.1,0.4,31.8,1.1z M14.7,34.1c0-0.1,0-0.1,0-0.2
			c0-0.1,0-0.1,0-0.2c0-0.1,0-0.1,0-0.2c0-0.1,0-0.1,0-0.2l0-0.2l0.1-0.2c0-0.1,0-0.1,0.1-0.2l0.1-0.2c0.1-0.1,0.1-0.2,0.2-0.3
			c0.1-0.1,0.2-0.2,0.2-0.3c0.2-0.2,0.4-0.4,0.6-0.5c0.1,0,0.1-0.1,0.2-0.1c0.1,0,0.1-0.1,0.2-0.1c0.1,0,0.3-0.1,0.4-0.1
			c0.3,0,0.5,0,0.8,0c0.1,0,0.2,0.1,0.3,0.1c0.1,0,0.2,0.1,0.3,0.2l0,0c0,0,0,0,0,0.1c0,0,0,0,0,0.1c0,0,0,0.1-0.1,0.1c0,0,0,0,0,0
			c-0.2,0-0.4-0.1-0.6-0.1c-0.2,0-0.4,0-0.6,0.1c-0.2,0.1-0.4,0.2-0.5,0.3c-0.2,0.1-0.3,0.3-0.4,0.4c0,0-0.1,0.1-0.1,0.2
			C16,32.7,16,32.8,15.9,33c-0.1,0.2-0.1,0.4-0.2,0.6c0,0.1,0,0.2,0,0.3c0,0.1,0,0.2,0,0.3c0,0.2,0,0.4,0,0.6c0,0.1,0,0.2,0,0.3
			c0,0.1,0,0.2,0.1,0.3c0.1,0.3,0.2,0.6,0.3,0.9c0.1,0.3,0.3,0.5,0.5,0.8c0.2,0.3,0.5,0.6,0.9,0.8c0.1,0.1,0.2,0.1,0.3,0.2
			c0.2,0.1,0.4,0.2,0.6,0.2c0.1,0,0.2,0,0.3,0c0,0,0.1,0,0.1,0.1c0,0,0,0.1-0.1,0.1l0,0c-0.5,0.1-1,0.1-1.4-0.1
			c-0.5-0.2-0.9-0.5-1.2-0.8c-0.4-0.4-0.8-1-1-1.5c-0.1-0.2-0.2-0.5-0.2-0.7c0-0.1,0-0.2-0.1-0.4c0-0.1,0-0.1,0-0.2
			c0-0.1,0-0.1,0-0.2c0-0.1,0-0.1,0-0.2C14.7,34.2,14.7,34.2,14.7,34.1z M19.5,58c-0.6,0-1-0.5-1-1c0-0.6,0.5-1,1-1c0.6,0,1,0.5,1,1
			C20.5,57.6,20,58,19.5,58z M20.7,44.9L20.7,44.9c-0.5-0.2-0.9-0.6-1.3-0.9c-0.4-0.4-0.6-0.8-0.9-1.2c0-0.1-0.1-0.1-0.1-0.2l0,0
			c-0.6,0.1-1.2,0.2-1.7,0.4c-0.6,0.2-1.1,0.4-1.6,0.7c-0.5,0.3-1.1,0.6-1.6,0.9c-0.5,0.3-1,0.7-1.4,1.1l0,0c-0.1,0.1-0.2,0.1-0.2,0
			c-0.1-0.1-0.1-0.2,0-0.2c0.4-0.5,0.9-0.9,1.4-1.3c0.5-0.4,1-0.8,1.5-1.1c0.5-0.3,1.1-0.6,1.7-0.9c0.5-0.2,1.1-0.4,1.7-0.6
			c0-0.1,0-0.2-0.1-0.2c-0.1-0.5-0.2-1-0.1-1.5l0,0c0,0,0,0,0,0c0,0,0.1,0,0.1,0c0.3,0.9,0.7,1.8,1.1,2.6c0.2,0.4,0.5,0.8,0.7,1.2
			c0.3,0.4,0.6,0.8,0.9,1.2c0,0,0,0.1,0,0.1C20.8,44.9,20.7,44.9,20.7,44.9z M34.8,33.8c-0.1,0.1-0.1,0.3-0.2,0.4
			c-0.3,0.5-0.7,1-1.1,1.3c-0.1,0.1-0.2,0.2-0.4,0.3c-0.2,0.2-0.5,0.3-0.8,0.4c-0.3,0.1-0.6,0.2-0.9,0.3c-0.3,0.1-0.6,0.1-0.9,0.1
			c-0.3,0-0.6,0-0.9-0.1c-0.3-0.1-0.6-0.2-0.9-0.3c-0.3-0.1-0.5-0.3-0.8-0.4c-0.1-0.1-0.2-0.2-0.4-0.3c-0.5-0.4-0.8-0.9-1.1-1.4
			c-0.1-0.1-0.1-0.3-0.2-0.4c-0.2-0.6-0.3-1.2-0.3-1.8c0-2.6,2.1-4.6,4.7-4.5c2.6,0,4.6,2.1,4.5,4.7C35.2,32.6,35,33.2,34.8,33.8z
			 M39.4,27.6c-0.1,0.4-0.4,0.7-0.9,0.7l0,0c-0.9,0-1.8,0.2-2.5,0.5c-0.3,0.1-0.6,0.1-0.8-0.2c-1-1.4-2.7-2.4-4.7-2.4
			c-2.9,0-5.4,2.3-5.6,5.3c0,0,0,0,0,0l-1.6-0.3c0,0-2.6-0.5-3.5-0.7c-0.9-0.2-0.5-0.3,0.8-0.1c0.5,0,1.7,0.2,1.8-0.5
			c0,0,0-0.2,0.1-0.4c0-0.2,0.2-1,0.4-1.8c0,0,0,0,0,0c0.2-0.9-0.3-1.1-0.6-1.2c-0.2,0-0.4-0.1-0.6-0.1c-0.2,0-0.3,0-0.5,0
			c-0.2,0-0.4,0-0.7,0c0,0-0.1,0-0.1,0c-0.2,0-0.4,0-0.6,0c0,0,0,0,0,0c-0.2,0-0.3,0-0.5,0.1c-0.5,0.1-1,0.2-1.4,0.3h0c0,0,0,0,0,0
			c0,0-0.1,0-0.1,0l0,0c0,0,0,0,0,0c-0.1,0-0.2,0.1-0.3,0.1c0,0,0,0,0,0c0,0,0,0,0,0C17,27,16.7,27.1,16.5,27
			c-0.3-0.1,0.1-0.4,0.2-0.4c0.1-0.1,0.2-0.1,0.4-0.2c0,0,0.1,0,0.1,0c0.6-0.3,1.2-0.5,1.8-0.6c0.6-0.2,1.3-0.3,2-0.3
			c0.4,0,0.8,0,1.2,0l0,0c0,0,0.6,0,0.4-0.3c-0.2-0.2-1.1-0.3-1.1-0.3l0,0c-0.2,0-0.4,0-0.6,0c-0.7,0-1.4,0-2.1,0.1
			c-0.4,0.1-1.2,0.2-1.2,0.2s-1,0.3-1.4,0.1c-0.4-0.2,0.3-0.5,0.3-0.5l0,0c0.4-0.2,0.8-0.4,1.3-0.5c0.6-0.2,1.3-0.4,2-0.5
			c0.2,0,0.5-0.1,0.7-0.1c0.2,0,0.4-0.1,0.2-0.3c-0.2-0.2-1-0.2-1.1-0.2c0,0,0,0,0,0c0,0-0.1,0-0.1,0c-0.7,0.1-1.4,0.2-2,0.3
			c0,0-1,0.3-1.3,0.1c-0.3-0.1,0-0.4,0.2-0.5l-0.1,0c0,0,0,0,0.1,0c0.1,0,0.1,0,0.1,0l0,0c0.6-0.3,1.2-0.5,1.9-0.7
			c0.3-0.1,0.3-0.2,0.3-0.3c-0.2-0.3-0.7-0.2-1.5,0c-0.2,0.1-0.5,0.1-0.7,0.2c-0.1,0-0.3-0.1-0.2-0.2c1.7-8.7,7.9-13.9,14.2-14.5
			c0.2,0,1-0.5,2.1-0.8c0.6-0.1,1.2-0.2,1.8-0.2l0,0c0,0,0.1,0,0.1,0.1c0,0,0,0.1-0.1,0.1c-0.1,0-0.2,0.1-0.3,0.1l0,0
			c0,0-2.9,0.5-4.3,2.3c0,0,0,0,0,0c0,0-0.1,0.1-0.1,0.1c0,0,0,0,0,0l0,0c0,0.1,0.1,0.2,0.2,0.1c3.2-1.7,5.4-1.9,5.7-1.9
			c1.2-0.2,2.5,0,3.6,0.2l0,0c0,0,0.1,0,0.1,0.1c0,0,0,0.1-0.1,0.1C38.2,7.9,37.1,8,36,8.3c0,0,0,0,0,0c0,0-0.1,0-0.1,0
			c-1.1,0.3-2.2,0.7-3.2,1.3c-0.2,0.1-0.1,0.3,0.2,0.2c3.2-0.9,5.8-0.6,7.1-0.3c0.5,0.1,1.9,0.5,3,1l0,0c0,0,0.1,0.1,0,0.1
			c0,0-0.1,0.1-0.1,0.1c-0.2,0-0.4-0.1-0.6-0.1l0,0c-3.5-1.1-6.6,0.1-6.6,0.1c-0.1,0-0.1,0.2,0,0.2c1.8-0.2,4.8-0.2,6.6,1.1
			c0.1,0.1,0.2,0.2,0.3,0.3c0,0,0,0,0.1,0c1.3,1.1,2.2,2.5,2.7,3.8c0.3,0.8,0.5,1.9,0.7,2.6c0,0.2-0.2,0.5-0.4,0.4
			c-1.1-0.1-2.1,0.1-2.8,0.3c0,0-0.1,0-0.1,0c-0.1,0-0.3,0.1-0.4,0.1c0,0-0.1,0-0.1,0c-0.7,0.2-1.1,0.5-1.1,0.5l0,0
			c-0.5,0.3-1,0.7-1.5,1.1C38.9,22,38.4,23,38.4,23c-0.1,0.1-0.1,0.2-0.1,0.4c0.1,0.3,0.3,0.5,0.5,0.4c0.1,0,0.1-0.1,0.2-0.1l0,0
			c1.3-1.3,2.9-2.2,4.8-2.5c0.8-0.2,1.6-0.2,2.3-0.2c0.4,0,0.6,0.3,0.7,0.9c0,0,0,0.1,0,0.1c0,0.7-0.2,1-0.7,1c0,0,0,0,0,0
			c-0.3-0.1-0.6-0.1-0.8-0.1C42.4,22.7,39.9,24.8,39.4,27.6z M49.3,30c-0.1,0.4-0.3,0.7-0.5,1c-0.1,0.2-0.3,0.4-0.4,0.6
			c-0.2,0.2-0.3,0.4-0.5,0.5c-0.2,0.2-0.4,0.3-0.6,0.4c-0.1,0.1-0.2,0.1-0.4,0.2c0,0-0.1,0-0.1,0c-0.1,0.1-0.3,0.1-0.4,0.2
			c-0.1,0-0.2,0.1-0.4,0.1c0,0-0.1,0-0.1,0c-0.1,0-0.2,0-0.3,0.1c0,0-0.1,0-0.1,0c-0.1,0-0.2,0-0.3,0c0,0-0.1,0-0.1,0
			c-0.1,0-0.3,0-0.4,0c-0.1,0-0.3,0-0.4,0c0,0-0.1,0-0.1,0c-0.1,0-0.2,0-0.3,0c0,0-0.1,0-0.1,0c-0.1,0-0.2,0-0.3-0.1
			c0,0-0.1,0-0.1,0c-0.1,0-0.2-0.1-0.3-0.1c-0.1-0.1-0.3-0.1-0.4-0.2c0,0-0.1,0-0.1,0c-0.1-0.1-0.2-0.1-0.4-0.2
			c-0.2-0.1-0.4-0.3-0.6-0.4c-0.2-0.2-0.3-0.3-0.5-0.5c-0.2-0.2-0.3-0.4-0.4-0.6c-0.2-0.3-0.3-0.7-0.4-1c-0.1-0.4-0.2-0.9-0.2-1.4
			c0-0.5,0.1-0.9,0.2-1.4c0.1-0.3,0.2-0.6,0.4-0.8c0.1-0.3,0.3-0.5,0.5-0.7c0.5-0.6,1.1-1,1.8-1.3c0.3-0.1,0.6-0.2,0.9-0.3
			c0.3-0.1,0.6-0.1,0.9-0.1c0.3,0,0.6,0,0.9,0.1c0.3,0.1,0.6,0.2,0.9,0.3c0.7,0.3,1.3,0.8,1.7,1.3c0.2,0.2,0.3,0.5,0.5,0.7
			c0.1,0.3,0.3,0.5,0.3,0.8c0.1,0.4,0.2,0.9,0.2,1.4S49.5,29.6,49.3,30z"/>
		<path class="st0" d="M46.3,25.1c-1.2-0.5-2.6-0.2-3.6,0.5c-0.1,0.1-0.1,0.1,0,0.2c0,0,0.1,0.1,0.2,0.1l0.1,0
			c1.2-0.4,2.2-0.2,3,0.3c0.6,0.3,1,0.8,1.2,1.3c-0.3-0.3-0.7-0.6-1.1-0.7c-0.3,0-0.5,0-0.7,0c-0.1,0-0.2,0.2-0.1,0.3
			c0.2,0.2,0.3,0.4,0.3,0.7c0,0.4-0.3,0.7-0.7,0.7c-0.2,0-0.4,0-0.5-0.1c-0.1-0.1-0.3,0-0.3,0.1c0,0.2,0,0.3,0.1,0.5
			c0.2,0.7,0.9,1.2,1.6,1.2c0.7,0,1.3-0.3,1.6-0.9c-0.1,0.4-0.3,0.7-0.5,1c-0.5,0.7-1.5,1.3-2.7,1.4l0,0c-0.1,0-0.1,0.1-0.1,0.1
			c0,0,0,0.1,0.1,0.1c0.6,0.2,1.2,0.2,1.8,0c0.6-0.1,1.2-0.4,1.6-0.9c0.2-0.2,0.4-0.4,0.6-0.7c0.2-0.3,0.3-0.5,0.4-0.8
			c0.2-0.6,0.2-1.2,0.1-1.8C48.4,26.6,47.5,25.5,46.3,25.1z"/>
	</g>
</g>
</svg>
